# xmcd CD database file generated by Grip 2.96
# 
# Track frame offsets:
#       182
#       12787
#       26320
#       40750
#       54582
#       67592
#       80452
#       93097
#       105282
#       116600
# 
# Disc length: 1784 seconds
# 
# Revision: 0
# Processed by: cddbd v1.4PL0 Copyright (c) Steve Scherf et al.
# Submitted via: Grip 2.96
# 
DISCID=6106f60a
DTITLE=Screamin' Jay Hawkins - From Grand To Gotham
DYEAR=1900
DGENRE=
TTITLE0=$10000 Lincoln Continental
TTITLE1=Why did you waste my time
TTITLE2=No hug no kiss
TTITLE3=Coronation jump
TTITLE4=I put a spell on you
TTITLE5=Why did you waste my time (2)
TTITLE6=$10000 Lincoln Continental (2)
TTITLE7=Pauline
TTITLE8=Take me back
TTITLE9=I is
EXTD=
EXTT0=
EXTT1=
EXTT2=
EXTT3=
EXTT4=
EXTT5=
EXTT6=
EXTT7=
EXTT8=
EXTT9=
PLAYORDER=
